HIERARCHY
ROOT newVegas:Hips
{
	OFFSET 0.000000 96.479958 0.000000
	CHANNELS 6 Xposition Yposition Zposition Xrotation Yrotation Zrotation
	JOINT newVegas:Pelvis
	{
		OFFSET 0.000000 0.000000 0.000000
		CHANNELS 3 Xrotation Yrotation Zrotation
		JOINT newVegas:LeftUpLeg
		{
			OFFSET 18.735201 -5.666702 -4.541200
			CHANNELS 3 Xrotation Yrotation Zrotation
			JOINT newVegas:LeftLeg
			{
				OFFSET -0.021200 -31.938179 0.493100
				CHANNELS 3 Xrotation Yrotation Zrotation
				JOINT newVegas:LeftFoot
				{
					OFFSET 0.021200 -31.938179 -4.336299
					CHANNELS 3 Xrotation Yrotation Zrotation
					JOINT newVegas:LeftToeBase
					{
						OFFSET 0.943001 -26.722000 15.023500
						CHANNELS 3 Xrotation Yrotation Zrotation
						End Site
						{
							OFFSET 0.000000 30.670183 0.000000
						}
					}
				}
				JOINT newVegas:Left_PantLeg
				{
					OFFSET 0.663870 -9.044666 -1.108900
					CHANNELS 3 Xrotation Yrotation Zrotation
					End Site
					{
						OFFSET 1.415995 20.635357 0.000000
					}
				}
			}
		}
		JOINT newVegas:RightUpLeg
		{
			OFFSET -18.735201 -5.666702 -4.541200
			CHANNELS 3 Xrotation Yrotation Zrotation
			JOINT newVegas:RightLeg
			{
				OFFSET 0.018946 -31.938133 0.493100
				CHANNELS 3 Xrotation Yrotation Zrotation
				JOINT newVegas:RightFoot
				{
					OFFSET -0.018946 -31.938126 -4.336299
					CHANNELS 3 Xrotation Yrotation Zrotation
					JOINT newVegas:RightToeBase
					{
						OFFSET -0.943001 -26.722004 15.023500
						CHANNELS 3 Xrotation Yrotation Zrotation
						End Site
						{
							OFFSET 0.000000 30.670187 0.000000
						}
					}
				}
				JOINT newVegas:Right_PantLeg
				{
					OFFSET -0.661674 -9.044716 -1.108900
					CHANNELS 3 Xrotation Yrotation Zrotation
					End Site
					{
						OFFSET -1.415958 20.635269 0.000000
					}
				}
			}
		}
	}
	JOINT newVegas:Spine
	{
		OFFSET 0.000000 10.199997 -0.299500
		CHANNELS 3 Xrotation Yrotation Zrotation
		JOINT newVegas:Spine1
		{
			OFFSET 0.000000 11.900002 -1.516600
			CHANNELS 3 Xrotation Yrotation Zrotation
			JOINT newVegas:Spine2
			{
				OFFSET 0.000000 13.600006 -2.842500
				CHANNELS 3 Xrotation Yrotation Zrotation
				JOINT newVegas:Neck
				{
					OFFSET 0.000000 9.624100 -2.890100
					CHANNELS 3 Xrotation Yrotation Zrotation
					JOINT newVegas:Head
					{
						OFFSET 0.000000 14.068802 -1.351900
						CHANNELS 3 Xrotation Yrotation Zrotation
						JOINT newVegas:Hair_Back
						{
							OFFSET 0.000000 3.231903 -17.524799
							CHANNELS 3 Xrotation Yrotation Zrotation
							End Site
							{
								OFFSET 0.000000 19.849884 0.000000
							}
						}
						JOINT newVegas:Hair_Front
						{
							OFFSET 0.000000 31.260406 4.573800
							CHANNELS 3 Xrotation Yrotation Zrotation
							JOINT newVegas:Hair_Front1
							{
								OFFSET 0.000000 2.284103 11.993300
								CHANNELS 3 Xrotation Yrotation Zrotation
								JOINT newVegas:Hair_Front2
								{
									OFFSET 0.000000 2.284103 11.993300
									CHANNELS 3 Xrotation Yrotation Zrotation
									End Site
									{
										OFFSET 0.000000 12.208862 0.000000
									}
								}
							}
						}
						JOINT newVegas:Jowel
						{
							OFFSET 0.000000 -7.458206 6.864100
							CHANNELS 3 Xrotation Yrotation Zrotation
							End Site
							{
								OFFSET 0.000000 19.849884 0.000000
							}
						}
					}
				}
				JOINT newVegas:LeftShoulder
				{
					OFFSET 15.263000 10.923401 -0.547700
					CHANNELS 3 Xrotation Yrotation Zrotation
					JOINT newVegas:LeftArm
					{
						OFFSET 25.438599 -2.830597 -13.032500
						CHANNELS 3 Xrotation Yrotation Zrotation
						JOINT newVegas:LeftForeArm
						{
							OFFSET 29.960503 0.000000 0.000000
							CHANNELS 3 Xrotation Yrotation Zrotation
							JOINT newVegas:LeftHand
							{
								OFFSET 27.849251 0.000000 0.000000
								CHANNELS 3 Xrotation Yrotation Zrotation
								JOINT newVegas:LeftHandThumb1
								{
									OFFSET 4.487587 -3.305161 6.305391
									CHANNELS 3 Xrotation Yrotation Zrotation
									JOINT newVegas:LeftHandThumb2
									{
										OFFSET 5.480453 -3.164139 3.164143
										CHANNELS 3 Xrotation Yrotation Zrotation
										JOINT newVegas:LeftHandThumb3
										{
											OFFSET 5.159721 -2.978973 2.978967
											CHANNELS 3 Xrotation Yrotation Zrotation
											End Site
											{
												OFFSET 2.494507 5.926697 1.738678
											}
										}
									}
								}
								JOINT newVegas:LeftHandIndex1
								{
									OFFSET 18.578728 -0.527832 5.208049
									CHANNELS 3 Xrotation Yrotation Zrotation
									JOINT newVegas:LeftHandIndex2
									{
										OFFSET 3.192009 0.000000 0.000000
										CHANNELS 3 Xrotation Yrotation Zrotation
										JOINT newVegas:LeftHandIndex3
										{
											OFFSET 3.835129 0.000000 0.000000
											CHANNELS 3 Xrotation Yrotation Zrotation
											End Site
											{
												OFFSET -0.034599 3.816971 0.371180
											}
										}
									}
								}
								JOINT newVegas:LeftHandMiddle1
								{
									OFFSET 18.476105 0.000000 0.000000
									CHANNELS 3 Xrotation Yrotation Zrotation
									JOINT newVegas:LeftHandMiddle2
									{
										OFFSET 3.324875 0.000000 0.000000
										CHANNELS 3 Xrotation Yrotation Zrotation
										JOINT newVegas:LeftHandMiddle3
										{
											OFFSET 4.596550 0.000000 0.000000
											CHANNELS 3 Xrotation Yrotation Zrotation
											End Site
											{
												OFFSET 0.057701 4.578827 0.399218
											}
										}
									}
								}
								JOINT newVegas:LeftHandRing1
								{
									OFFSET 17.732719 0.121887 -4.201567
									CHANNELS 3 Xrotation Yrotation Zrotation
									JOINT newVegas:LeftHandRing2
									{
										OFFSET 2.733170 0.000000 0.000000
										CHANNELS 3 Xrotation Yrotation Zrotation
										JOINT newVegas:LeftHandRing3
										{
											OFFSET 3.178268 0.000000 0.000000
											CHANNELS 3 Xrotation Yrotation Zrotation
											End Site
											{
												OFFSET 0.119102 3.170624 0.185394
											}
										}
									}
								}
								JOINT newVegas:LeftHandPinky1
								{
									OFFSET 15.989624 -0.606689 -7.535461
									CHANNELS 3 Xrotation Yrotation Zrotation
									JOINT newVegas:LeftHandPinky2
									{
										OFFSET 2.538986 0.000000 0.000000
										CHANNELS 3 Xrotation Yrotation Zrotation
										JOINT newVegas:LeftHandPinky3
										{
											OFFSET 2.593102 0.000000 0.000000
											CHANNELS 3 Xrotation Yrotation Zrotation
											End Site
											{
												OFFSET -0.150902 2.584198 0.152708
											}
										}
									}
								}
							}
							JOINT newVegas:Left_Sleeve
							{
								OFFSET 0.267448 -0.649796 0.577675
								CHANNELS 3 Xrotation Yrotation Zrotation
								End Site
								{
									OFFSET 0.000000 15.991241 0.000000
								}
							}
							JOINT newVegas:Left_CapeC
							{
								OFFSET 15.715958 -8.608795 -6.935905
								CHANNELS 3 Xrotation Yrotation Zrotation
								JOINT newVegas:Left_CapeC1
								{
									OFFSET 0.000000 -8.688499 0.000000
									CHANNELS 3 Xrotation Yrotation Zrotation
									End Site
									{
										OFFSET 0.000000 8.688499 0.000000
									}
								}
							}
						}
						JOINT newVegas:Left_CapeB
						{
							OFFSET 26.118385 -8.608795 -7.079235
							CHANNELS 3 Xrotation Yrotation Zrotation
							JOINT newVegas:Left_CapeB1
							{
								OFFSET 0.000000 -8.688499 0.000000
								CHANNELS 3 Xrotation Yrotation Zrotation
								End Site
								{
									OFFSET 0.000000 8.688499 0.000000
								}
							}
						}
						JOINT newVegas:Left_CapeA
						{
							OFFSET 5.115639 -8.608795 -10.395809
							CHANNELS 3 Xrotation Yrotation Zrotation
							JOINT newVegas:Left_CapeA1
							{
								OFFSET 0.000000 -8.688499 0.000000
								CHANNELS 3 Xrotation Yrotation Zrotation
								End Site
								{
									OFFSET 0.000000 8.688499 0.000000
								}
							}
						}
					}
				}
				JOINT newVegas:RightShoulder
				{
					OFFSET -15.263000 10.923401 -0.547700
					CHANNELS 3 Xrotation Yrotation Zrotation
					JOINT newVegas:RightArm
					{
						OFFSET -25.438599 -2.830597 -13.032500
						CHANNELS 3 Xrotation Yrotation Zrotation
						JOINT newVegas:RightForeArm
						{
							OFFSET -29.960503 0.000000 0.000000
							CHANNELS 3 Xrotation Yrotation Zrotation
							JOINT newVegas:RightHand
							{
								OFFSET -27.849251 0.000000 0.000000
								CHANNELS 3 Xrotation Yrotation Zrotation
								JOINT newVegas:RightHandThumb1
								{
									OFFSET -4.487587 -3.305161 6.305391
									CHANNELS 3 Xrotation Yrotation Zrotation
									JOINT newVegas:RightHandThumb2
									{
										OFFSET -5.480453 -3.164139 3.164143
										CHANNELS 3 Xrotation Yrotation Zrotation
										JOINT newVegas:RightHandThumb3
										{
											OFFSET -5.159721 -2.978973 2.978967
											CHANNELS 3 Xrotation Yrotation Zrotation
											End Site
											{
												OFFSET -2.494507 5.926697 1.738678
											}
										}
									}
								}
								JOINT newVegas:RightHandIndex1
								{
									OFFSET -18.578728 -0.527832 5.208049
									CHANNELS 3 Xrotation Yrotation Zrotation
									JOINT newVegas:RightHandIndex2
									{
										OFFSET -3.192009 0.000000 0.000000
										CHANNELS 3 Xrotation Yrotation Zrotation
										JOINT newVegas:RightHandIndex3
										{
											OFFSET -3.835129 0.000000 0.000000
											CHANNELS 3 Xrotation Yrotation Zrotation
											End Site
											{
												OFFSET 0.034599 3.816971 0.371180
											}
										}
									}
								}
								JOINT newVegas:RightHandMiddle1
								{
									OFFSET -18.476105 0.000000 0.000000
									CHANNELS 3 Xrotation Yrotation Zrotation
									JOINT newVegas:RightHandMiddle2
									{
										OFFSET -3.324875 0.000000 0.000000
										CHANNELS 3 Xrotation Yrotation Zrotation
										JOINT newVegas:RightHandMiddle3
										{
											OFFSET -4.596550 0.000000 0.000000
											CHANNELS 3 Xrotation Yrotation Zrotation
											End Site
											{
												OFFSET -0.057701 4.578827 0.399218
											}
										}
									}
								}
								JOINT newVegas:RightHandRing1
								{
									OFFSET -17.732719 0.121887 -4.201567
									CHANNELS 3 Xrotation Yrotation Zrotation
									JOINT newVegas:RightHandRing2
									{
										OFFSET -2.733170 0.000000 0.000000
										CHANNELS 3 Xrotation Yrotation Zrotation
										JOINT newVegas:RightHandRing3
										{
											OFFSET -3.178268 0.000000 0.000000
											CHANNELS 3 Xrotation Yrotation Zrotation
											End Site
											{
												OFFSET -0.119102 3.170624 0.185394
											}
										}
									}
								}
								JOINT newVegas:RightHandPinky1
								{
									OFFSET -15.989624 -0.606689 -7.535461
									CHANNELS 3 Xrotation Yrotation Zrotation
									JOINT newVegas:RightHandPinky2
									{
										OFFSET -2.538986 0.000000 0.000000
										CHANNELS 3 Xrotation Yrotation Zrotation
										JOINT newVegas:RightHandPinky3
										{
											OFFSET -2.593102 0.000000 0.000000
											CHANNELS 3 Xrotation Yrotation Zrotation
											End Site
											{
												OFFSET 0.150902 2.584198 0.152708
											}
										}
									}
								}
							}
							JOINT newVegas:Right_CapeC
							{
								OFFSET -15.715958 -8.608795 -6.935905
								CHANNELS 3 Xrotation Yrotation Zrotation
								JOINT newVegas:Right_CapeC1
								{
									OFFSET 0.000000 -8.688499 0.000000
									CHANNELS 3 Xrotation Yrotation Zrotation
									End Site
									{
										OFFSET 0.000000 8.688499 0.000000
									}
								}
							}
							JOINT newVegas:Right_Sleeve
							{
								OFFSET -0.267448 -0.649994 0.577675
								CHANNELS 3 Xrotation Yrotation Zrotation
								End Site
								{
									OFFSET 0.000000 15.991302 0.000000
								}
							}
						}
						JOINT newVegas:Right_CapeA
						{
							OFFSET -5.115540 -8.608795 -10.395824
							CHANNELS 3 Xrotation Yrotation Zrotation
							JOINT newVegas:Right_CapeA1
							{
								OFFSET 0.000000 -8.688499 0.000000
								CHANNELS 3 Xrotation Yrotation Zrotation
								End Site
								{
									OFFSET 0.000000 8.688499 0.000000
								}
							}
						}
						JOINT newVegas:Right_CapeB
						{
							OFFSET -26.118187 -8.608795 -7.079266
							CHANNELS 3 Xrotation Yrotation Zrotation
							JOINT newVegas:Right_CapeB1
							{
								OFFSET 0.000000 -8.688499 0.000000
								CHANNELS 3 Xrotation Yrotation Zrotation
								End Site
								{
									OFFSET 0.000000 8.688499 0.000000
								}
							}
						}
					}
				}
				JOINT newVegas:Left_Collar
				{
					OFFSET 18.625099 8.655502 8.828100
					CHANNELS 3 Xrotation Yrotation Zrotation
					JOINT newVegas:Left_Collar1
					{
						OFFSET 14.783401 10.540405 -1.259500
						CHANNELS 3 Xrotation Yrotation Zrotation
						End Site
						{
							OFFSET 0.000000 18.199875 0.000000
						}
					}
				}
				JOINT newVegas:Collar_Back
				{
					OFFSET 0.000000 15.630707 -20.132601
					CHANNELS 3 Xrotation Yrotation Zrotation
					End Site
					{
						OFFSET 0.000000 22.523010 0.000000
					}
				}
				JOINT newVegas:Left_Peck
				{
					OFFSET 17.239599 -5.132599 25.482599
					CHANNELS 3 Xrotation Yrotation Zrotation
					End Site
					{
						OFFSET 0.000000 22.523010 0.000000
					}
				}
				JOINT newVegas:Right_Peck
				{
					OFFSET -17.239599 -5.132202 25.482599
					CHANNELS 3 Xrotation Yrotation Zrotation
					End Site
					{
						OFFSET 0.000000 22.523010 0.000000
					}
				}
				JOINT newVegas:Right_Collar
				{
					OFFSET -18.625099 8.655792 8.828100
					CHANNELS 3 Xrotation Yrotation Zrotation
					JOINT newVegas:Right_Collar1
					{
						OFFSET -14.783401 10.539993 -1.259500
						CHANNELS 3 Xrotation Yrotation Zrotation
						End Site
						{
							OFFSET 0.000000 18.199631 0.000000
						}
					}
				}
			}
		}
		JOINT newVegas:Belly
		{
			OFFSET 0.000000 -6.540398 9.014299
			CHANNELS 3 Xrotation Yrotation Zrotation
			End Site
			{
				OFFSET 0.000000 11.566666 0.000000
			}
		}
	}
	JOINT newVegas:ElvisFacialAnim_Joint
	{
		OFFSET 1.000000 -95.330101 -8.825800
		CHANNELS 3 Xrotation Yrotation Zrotation
		End Site
		{
			OFFSET 0.000000 35.315800 0.000000
		}
	}
}
MOTION
Frames: 4
Frame Time: 0.016667
1.895169 82.295776 3.368665 7.693032 -10.167390 1.706806 0.000000 0.000000 -0.000000 -56.525515 -0.498635 22.852555 48.654880 3.241759 5.078487 5.393426 0.585506 -20.352587 0.000000 -0.000000 0.000000 -0.000000 -0.000000 0.000004 -27.261522 0.052186 -35.325424 40.734381 0.453115 -1.404064 -12.593880 -6.250769 33.415840 -0.000000 0.000002 -0.000000 0.000000 0.000001 0.000001 7.620508 1.300623 -2.533235 6.431368 1.228088 -0.932161 6.450695 1.172317 -0.845380 -1.288250 -0.140355 -0.414513 -1.288266 -0.140354 -0.414513 -0.000002 -0.000001 -0.000000 -1.288253 -0.140354 -0.414514 -1.288253 -0.140357 -0.414514 -0.000000 -0.000000 0.000000 -0.000002 -0.000001 -0.000000 5.349774 -35.475907 4.326025 -77.161200 -31.121333 -22.573246 0.000010 -27.636906 -0.000003 -131.009804 7.371608 18.178598 39.578713 -17.197332 -21.086428 11.236010 23.988451 2.901707 -0.000000 -0.000001 -0.000001 3.600016 6.051855 -61.463472 4.128139 6.308903 -66.366196 0.000000 -0.000000 -0.000001 2.451413 5.270989 -49.859937 3.793771 6.152667 -63.285951 0.000002 -0.000001 0.000003 2.452892 5.272227 -49.876053 3.792051 6.151791 -63.269791 -0.000000 0.000001 0.000003 7.187309 7.991534 -61.391782 4.144308 2.228329 -66.583198 0.000001 -0.000005 -0.000001 -0.000000 0.000000 -0.000000 -0.000000 0.000000 -0.000000 -0.000001 0.000001 -0.000000 0.000002 -0.000001 -0.000000 0.000002 -0.000002 -0.000000 0.000002 -0.000001 -0.000000 0.000000 -0.000002 -0.000000 3.654529 31.100437 -18.637124 -34.428989 31.033094 9.535803 0.000000 29.388262 -0.000000 8.244904 12.377324 -3.343644 29.376439 16.962642 20.541336 9.559527 -25.704471 -5.659316 -0.000000 -0.000001 0.000001 2.155499 -5.036566 46.317149 4.033397 -6.309977 65.142909 -0.000001 0.000001 -0.000003 1.448245 -4.252494 37.599696 3.476829 -6.022566 59.964792 -0.000000 0.000000 -0.000000 1.448246 -4.252488 37.599696 3.476849 -6.022569 59.964792 0.000000 -0.000001 0.000001 2.155491 -5.036570 46.317159 4.033391 -6.309969 65.142888 -0.000000 -0.000000 0.000000 0.000000 0.000000 -0.000000 0.000000 0.000000 -0.000000 0.000000 0.000000 -0.000000 -0.000000 0.000002 0.000000 -0.000000 0.000003 0.000000 -0.000000 0.000002 0.000000 -0.000000 0.000003 0.000001 -0.000000 0.000000 -0.000000 -0.000000 0.000000 -0.000000 -0.000000 0.000000 -0.000000 -0.000000 0.000000 -0.000000 -0.000000 0.000000 -0.000000 -0.000000 0.000000 -0.000000 -0.000000 0.000000 -0.000000 -0.000000 -0.000000 0.000000 0.000000 0.000000 -0.000000 
2.018559 82.166306 3.418502 7.767969 -9.741234 1.496115 -0.000001 0.000000 -0.000000 -57.122679 -0.856082 22.810788 49.250899 2.944110 4.830985 5.180596 0.625020 -20.052561 0.000000 -0.000001 0.000000 -0.000000 -0.000000 0.000001 -27.072119 -0.356992 -35.325315 40.707624 0.333517 -1.437777 -12.824700 -6.339986 33.514707 0.000000 -0.000003 0.000000 -0.000001 -0.000001 -0.000002 7.625018 1.145720 -2.606598 6.424122 1.146838 -0.979023 6.443373 1.089223 -0.899067 -1.500197 -0.180612 -0.298709 -1.500213 -0.180609 -0.298708 -0.000000 -0.000000 -0.000000 -1.500199 -0.180615 -0.298709 -1.500274 -0.180616 -0.298708 0.000001 0.000000 -0.000001 -0.000000 -0.000000 0.000000 5.326300 -35.461034 4.512439 -76.482088 -31.696920 -21.754419 -0.000015 -27.909736 -0.000001 -131.195489 7.258887 17.612946 39.578713 -17.197335 -21.086437 11.236014 23.988454 2.901709 -0.000001 -0.000003 -0.000003 3.600016 6.051853 -61.463472 4.128139 6.308904 -66.366196 -0.000000 -0.000001 0.000003 2.451414 5.270988 -49.859937 3.793772 6.152668 -63.285951 -0.000000 0.000000 0.000000 2.452893 5.272224 -49.876063 3.792049 6.151791 -63.269791 0.000001 -0.000002 0.000001 7.187308 7.991531 -61.391776 4.144312 2.228322 -66.583211 -0.000001 -0.000000 0.000003 -0.000002 -0.000001 -0.000001 -0.000002 -0.000001 -0.000001 -0.000002 -0.000001 -0.000001 -0.000000 -0.000001 -0.000001 -0.000000 -0.000001 -0.000001 -0.000000 -0.000001 -0.000001 -0.000002 -0.000001 -0.000001 3.490726 30.381323 -18.452924 -35.039915 31.378063 10.047767 0.000000 29.551561 0.000000 7.728502 12.424318 -3.658104 29.376439 16.962638 20.541338 9.559523 -25.704471 -5.659312 0.000000 0.000001 0.000001 2.155500 -5.036571 46.317155 4.033399 -6.309978 65.142916 0.000000 0.000001 0.000002 1.448245 -4.252499 37.599696 3.476831 -6.022565 59.964792 0.000001 -0.000000 0.000001 1.448247 -4.252492 37.599700 3.476852 -6.022568 59.964785 -0.000000 -0.000001 -0.000000 2.155495 -5.036577 46.317159 4.033391 -6.309967 65.142888 -0.000001 0.000002 -0.000001 0.000000 0.000000 -0.000000 0.000000 -0.000000 -0.000000 0.000000 0.000000 -0.000000 0.000000 0.000001 -0.000000 0.000000 0.000002 0.000000 0.000000 0.000001 -0.000000 0.000000 0.000002 0.000000 -0.000000 0.000000 0.000000 -0.000000 0.000000 0.000000 -0.000000 0.000000 0.000000 -0.000000 0.000000 0.000000 -0.000000 0.000000 0.000000 -0.000000 0.000000 0.000000 -0.000000 0.000000 0.000000 -0.000002 -0.000000 0.000000 -0.000001 0.000000 -0.000000 
2.154844 82.029678 3.486932 7.716956 -9.381657 1.394281 0.000001 0.000000 0.000000 -57.545614 -1.074789 22.645518 49.851358 2.720111 4.700055 4.953833 0.665488 -19.824363 0.000000 0.000000 -0.000000 0.000000 0.000000 -0.000002 -26.837779 -0.628983 -35.495817 40.831124 0.297991 -1.426216 -13.125783 -6.447889 33.589637 0.000000 0.000001 -0.000000 0.000001 0.000004 -0.000001 7.642963 1.027701 -2.689043 6.433789 1.091088 -1.028593 6.452336 1.034176 -0.954309 -1.664258 -0.223617 -0.185490 -1.664256 -0.223618 -0.185490 0.000001 -0.000000 -0.000000 -1.664258 -0.223616 -0.185490 -1.664262 -0.223615 -0.185489 -0.000002 0.000000 0.000000 0.000001 -0.000000 -0.000000 5.318308 -35.463698 4.617414 -75.973150 -32.528066 -21.224027 0.000005 -27.688224 -0.000009 -131.101765 6.992712 16.947885 39.578709 -17.197334 -21.086433 11.236016 23.988451 2.901701 0.000001 -0.000001 -0.000006 3.600016 6.051854 -61.463472 4.128139 6.308905 -66.366196 0.000001 0.000000 -0.000001 2.451414 5.270989 -49.859934 3.793772 6.152670 -63.285951 0.000001 0.000001 -0.000003 2.452894 5.272224 -49.876063 3.792049 6.151788 -63.269798 0.000001 -0.000001 0.000000 7.187307 7.991535 -61.391776 4.144312 2.228329 -66.583204 -0.000001 -0.000001 -0.000003 -0.000000 -0.000001 0.000002 -0.000000 -0.000001 0.000002 -0.000001 -0.000001 0.000002 -0.000001 0.000001 -0.000000 -0.000001 0.000001 -0.000000 -0.000001 0.000001 -0.000000 -0.000002 0.000002 -0.000000 3.343502 29.595684 -18.253978 -35.737606 31.911293 10.742124 -0.000000 29.323416 0.000000 7.359824 12.604411 -3.966193 29.376435 16.962640 20.541338 9.559525 -25.704469 -5.659315 0.000001 -0.000001 -0.000002 2.155499 -5.036568 46.317149 4.033397 -6.309978 65.142909 -0.000001 0.000001 0.000002 1.448245 -4.252494 37.599696 3.476830 -6.022567 59.964792 0.000000 0.000001 0.000000 1.448247 -4.252488 37.599700 3.476850 -6.022568 59.964792 -0.000001 0.000001 -0.000000 2.155491 -5.036575 46.317159 4.033392 -6.309971 65.142888 -0.000000 0.000003 -0.000002 -0.000000 0.000000 -0.000000 -0.000000 0.000000 -0.000000 -0.000000 0.000000 -0.000000 -0.000000 -0.000003 -0.000000 -0.000000 -0.000002 -0.000000 -0.000000 -0.000003 -0.000000 -0.000000 -0.000002 -0.000000 -0.000000 0.000001 -0.000000 -0.000000 0.000001 -0.000000 -0.000000 0.000001 -0.000000 -0.000000 0.000001 -0.000000 -0.000000 0.000001 -0.000000 -0.000000 0.000001 -0.000000 -0.000000 0.000001 -0.000000 -0.000002 0.000000 0.000000 0.000001 0.000000 0.000000 
2.282649 81.900757 3.559355 7.597611 -9.221607 1.395346 -0.000000 -0.000000 -0.000000 -57.862583 -0.964158 22.477302 50.435374 2.491532 4.823691 4.697211 0.711217 -19.704565 -0.000000 -0.000000 0.000000 0.000000 -0.000001 0.000002 -26.660583 -0.662492 -35.717532 41.050806 0.323730 -1.426070 -13.387415 -6.545517 33.670599 -0.000000 0.000001 0.000000 -0.000002 -0.000001 -0.000002 7.675800 0.950625 -2.779278 6.458414 1.059673 -1.078917 6.476067 1.004668 -1.008483 -1.780008 -0.261924 -0.095018 -1.780021 -0.261919 -0.095017 0.000001 0.000000 -0.000000 -1.780020 -0.261921 -0.095017 -1.780014 -0.261924 -0.095016 -0.000001 -0.000000 -0.000000 0.000001 0.000000 0.000000 5.324655 -35.494454 4.670772 -75.597750 -33.466547 -20.902961 0.000007 -27.148718 0.000009 -130.986581 6.692531 16.411305 39.578720 -17.197337 -21.086432 11.236018 23.988453 2.901704 0.000002 0.000003 -0.000003 3.600016 6.051854 -61.463472 4.128139 6.308904 -66.366189 -0.000002 -0.000000 -0.000002 2.451414 5.270987 -49.859937 3.793771 6.152666 -63.285951 0.000002 0.000000 0.000001 2.452892 5.272225 -49.876060 3.792050 6.151787 -63.269798 -0.000001 0.000001 0.000002 7.187310 7.991533 -61.391776 4.144312 2.228330 -66.583204 0.000001 -0.000003 -0.000004 0.000003 0.000000 -0.000001 0.000003 0.000000 -0.000001 0.000002 0.000001 -0.000001 0.000002 0.000000 0.000001 0.000002 0.000000 0.000000 0.000002 0.000000 0.000001 0.000000 -0.000000 0.000000 3.228986 28.899350 -18.100971 -36.415242 32.483079 11.481572 0.000000 28.812648 -0.000002 7.126547 12.795559 -4.183793 29.376435 16.962642 20.541343 9.559524 -25.704471 -5.659316 0.000005 0.000000 0.000001 2.155500 -5.036570 46.317149 4.033399 -6.309978 65.142909 -0.000000 0.000002 0.000001 1.448246 -4.252497 37.599696 3.476831 -6.022567 59.964785 0.000001 0.000001 -0.000001 1.448246 -4.252493 37.599700 3.476847 -6.022569 59.964792 0.000000 0.000001 -0.000001 2.155490 -5.036576 46.317155 4.033391 -6.309966 65.142895 -0.000001 -0.000004 0.000000 -0.000000 0.000000 -0.000000 -0.000000 -0.000000 0.000000 -0.000000 0.000000 -0.000000 -0.000001 0.000002 -0.000000 -0.000001 0.000003 -0.000000 -0.000001 0.000002 -0.000000 -0.000001 0.000003 0.000000 -0.000001 0.000000 -0.000000 -0.000001 0.000000 -0.000000 -0.000001 0.000000 -0.000000 -0.000001 0.000000 -0.000000 -0.000001 0.000000 -0.000000 -0.000001 0.000000 -0.000000 -0.000001 0.000000 -0.000000 -0.000000 -0.000000 -0.000000 -0.000000 -0.000000 -0.000000 
